ply
format ascii 1.0
comment Exported by RapidForm
element vertex 752
property float x
property float y
property float z
element face 1500
property list uchar int vertex_index
end_header
-0.500000 -0.500000 -3.000000
-0.300000 -0.500000 -3.000000
-0.100000 -0.500000 -3.000000
0.100000 -0.500000 -3.000000
0.300000 -0.500000 -3.000000
0.500000 -0.500000 -3.000000
-0.500000 -0.500000 -2.828571
-0.300000 -0.500000 -2.828571
-0.100000 -0.500000 -2.828571
0.100000 -0.500000 -2.828571
0.300000 -0.500000 -2.828571
0.500000 -0.500000 -2.828571
-0.500000 -0.500000 -2.657143
-0.300000 -0.500000 -2.657143
-0.100000 -0.500000 -2.657143
0.100000 -0.500000 -2.657143
0.300000 -0.500000 -2.657143
0.500000 -0.500000 -2.657143
-0.500000 -0.500000 -2.485714
-0.300000 -0.500000 -2.485714
-0.100000 -0.500000 -2.485714
0.100000 -0.500000 -2.485714
0.300000 -0.500000 -2.485714
0.500000 -0.500000 -2.485714
-0.500000 -0.500000 -2.314286
-0.300000 -0.500000 -2.314286
-0.100000 -0.500000 -2.314286
0.100000 -0.500000 -2.314286
0.300000 -0.500000 -2.314286
0.500000 -0.500000 -2.314286
-0.500000 -0.500000 -2.142857
-0.300000 -0.500000 -2.142857
-0.100000 -0.500000 -2.142857
0.100000 -0.500000 -2.142857
0.300000 -0.500000 -2.142857
0.500000 -0.500000 -2.142857
-0.500000 -0.500000 -1.971429
-0.300000 -0.500000 -1.971429
-0.100000 -0.500000 -1.971429
0.100000 -0.500000 -1.971429
0.300000 -0.500000 -1.971429
0.500000 -0.500000 -1.971429
-0.500000 -0.500000 -1.800000
-0.300000 -0.500000 -1.800000
-0.100000 -0.500000 -1.800000
0.100000 -0.500000 -1.800000
0.300000 -0.500000 -1.800000
0.500000 -0.500000 -1.800000
-0.500000 -0.500000 -1.628571
-0.300000 -0.500000 -1.628571
-0.100000 -0.500000 -1.628571
0.100000 -0.500000 -1.628571
0.300000 -0.500000 -1.628571
0.500000 -0.500000 -1.628571
-0.500000 -0.500000 -1.457143
-0.300000 -0.500000 -1.457143
-0.100000 -0.500000 -1.457143
0.100000 -0.500000 -1.457143
0.300000 -0.500000 -1.457143
0.500000 -0.500000 -1.457143
-0.500000 -0.500000 -1.285714
-0.300000 -0.500000 -1.285714
-0.100000 -0.500000 -1.285714
0.100000 -0.500000 -1.285714
0.300000 -0.500000 -1.285714
0.500000 -0.500000 -1.285714
-0.500000 -0.500000 -1.114286
-0.300000 -0.500000 -1.114286
-0.100000 -0.500000 -1.114286
0.100000 -0.500000 -1.114286
0.300000 -0.500000 -1.114286
0.500000 -0.500000 -1.114286
-0.500000 -0.500000 -0.942857
-0.300000 -0.500000 -0.942857
-0.100000 -0.500000 -0.942857
0.100000 -0.500000 -0.942857
0.300000 -0.500000 -0.942857
0.500000 -0.500000 -0.942857
-0.500000 -0.500000 -0.771429
-0.300000 -0.500000 -0.771429
-0.100000 -0.500000 -0.771429
0.100000 -0.500000 -0.771429
0.300000 -0.500000 -0.771429
0.500000 -0.500000 -0.771429
-0.500000 -0.500000 -0.600000
-0.300000 -0.500000 -0.600000
-0.100000 -0.500000 -0.600000
0.100000 -0.500000 -0.600000
0.300000 -0.500000 -0.600000
0.500000 -0.500000 -0.600000
-0.500000 -0.500000 -0.428571
-0.300000 -0.500000 -0.428571
-0.100000 -0.500000 -0.428571
0.100000 -0.500000 -0.428571
0.300000 -0.500000 -0.428571
0.500000 -0.500000 -0.428571
-0.500000 -0.500000 -0.257143
-0.300000 -0.500000 -0.257143
-0.100000 -0.500000 -0.257143
0.100000 -0.500000 -0.257143
0.300000 -0.500000 -0.257143
0.500000 -0.500000 -0.257143
-0.500000 -0.500000 -0.085714
-0.300000 -0.500000 -0.085714
-0.100000 -0.500000 -0.085714
0.100000 -0.500000 -0.085714
0.300000 -0.500000 -0.085714
0.500000 -0.500000 -0.085714
-0.500000 -0.500000 0.085714
-0.300000 -0.500000 0.085714
-0.100000 -0.500000 0.085714
0.100000 -0.500000 0.085714
0.300000 -0.500000 0.085714
0.500000 -0.500000 0.085714
-0.500000 -0.500000 0.257143
-0.300000 -0.500000 0.257143
-0.100000 -0.500000 0.257143
0.100000 -0.500000 0.257143
0.300000 -0.500000 0.257143
0.500000 -0.500000 0.257143
-0.500000 -0.500000 0.428571
-0.300000 -0.500000 0.428571
-0.100000 -0.500000 0.428571
0.100000 -0.500000 0.428571
0.300000 -0.500000 0.428571
0.500000 -0.500000 0.428571
-0.500000 -0.500000 0.600000
-0.300000 -0.500000 0.600000
-0.100000 -0.500000 0.600000
0.100000 -0.500000 0.600000
0.300000 -0.500000 0.600000
0.500000 -0.500000 0.600000
-0.500000 -0.500000 0.771429
-0.300000 -0.500000 0.771429
-0.100000 -0.500000 0.771429
0.100000 -0.500000 0.771429
0.300000 -0.500000 0.771429
0.500000 -0.500000 0.771429
-0.500000 -0.500000 0.942857
-0.300000 -0.500000 0.942857
-0.100000 -0.500000 0.942857
0.100000 -0.500000 0.942857
0.300000 -0.500000 0.942857
0.500000 -0.500000 0.942857
-0.500000 -0.500000 1.114286
-0.300000 -0.500000 1.114286
-0.100000 -0.500000 1.114286
0.100000 -0.500000 1.114286
0.300000 -0.500000 1.114286
0.500000 -0.500000 1.114286
-0.500000 -0.500000 1.285714
-0.300000 -0.500000 1.285714
-0.100000 -0.500000 1.285714
0.100000 -0.500000 1.285714
0.300000 -0.500000 1.285714
0.500000 -0.500000 1.285714
-0.500000 -0.500000 1.457143
-0.300000 -0.500000 1.457143
-0.100000 -0.500000 1.457143
0.100000 -0.500000 1.457143
0.300000 -0.500000 1.457143
0.500000 -0.500000 1.457143
-0.500000 -0.500000 1.628571
-0.300000 -0.500000 1.628571
-0.100000 -0.500000 1.628571
0.100000 -0.500000 1.628571
0.300000 -0.500000 1.628571
0.500000 -0.500000 1.628571
-0.500000 -0.500000 1.800000
-0.300000 -0.500000 1.800000
-0.100000 -0.500000 1.800000
0.100000 -0.500000 1.800000
0.300000 -0.500000 1.800000
0.500000 -0.500000 1.800000
-0.500000 -0.500000 1.971429
-0.300000 -0.500000 1.971429
-0.100000 -0.500000 1.971429
0.100000 -0.500000 1.971429
0.300000 -0.500000 1.971429
0.500000 -0.500000 1.971429
-0.500000 -0.500000 2.142857
-0.300000 -0.500000 2.142857
-0.100000 -0.500000 2.142857
0.100000 -0.500000 2.142857
0.300000 -0.500000 2.142857
0.500000 -0.500000 2.142857
-0.500000 -0.500000 2.314286
-0.300000 -0.500000 2.314286
-0.100000 -0.500000 2.314286
0.100000 -0.500000 2.314286
0.300000 -0.500000 2.314286
0.500000 -0.500000 2.314286
-0.500000 -0.500000 2.485714
-0.300000 -0.500000 2.485714
-0.100000 -0.500000 2.485714
0.100000 -0.500000 2.485714
0.300000 -0.500000 2.485714
0.500000 -0.500000 2.485714
-0.500000 -0.500000 2.657143
-0.300000 -0.500000 2.657143
-0.100000 -0.500000 2.657143
0.100000 -0.500000 2.657143
0.300000 -0.500000 2.657143
0.500000 -0.500000 2.657143
-0.500000 -0.500000 2.828571
-0.300000 -0.500000 2.828571
-0.100000 -0.500000 2.828571
0.100000 -0.500000 2.828571
0.300000 -0.500000 2.828571
0.500000 -0.500000 2.828571
-0.500000 -0.500000 3.000000
-0.300000 -0.500000 3.000000
-0.100000 -0.500000 3.000000
0.100000 -0.500000 3.000000
0.300000 -0.500000 3.000000
0.500000 -0.500000 3.000000
-0.500000 0.500000 -3.000000
-0.300000 0.500000 -3.000000
-0.100000 0.500000 -3.000000
0.100000 0.500000 -3.000000
0.300000 0.500000 -3.000000
0.500000 0.500000 -3.000000
-0.500000 0.500000 -2.828571
-0.300000 0.500000 -2.828571
-0.100000 0.500000 -2.828571
0.100000 0.500000 -2.828571
0.300000 0.500000 -2.828571
0.500000 0.500000 -2.828571
-0.500000 0.500000 -2.657143
-0.300000 0.500000 -2.657143
-0.100000 0.500000 -2.657143
0.100000 0.500000 -2.657143
0.300000 0.500000 -2.657143
0.500000 0.500000 -2.657143
-0.500000 0.500000 -2.485714
-0.300000 0.500000 -2.485714
-0.100000 0.500000 -2.485714
0.100000 0.500000 -2.485714
0.300000 0.500000 -2.485714
0.500000 0.500000 -2.485714
-0.500000 0.500000 -2.314286
-0.300000 0.500000 -2.314286
-0.100000 0.500000 -2.314286
0.100000 0.500000 -2.314286
0.300000 0.500000 -2.314286
0.500000 0.500000 -2.314286
-0.500000 0.500000 -2.142857
-0.300000 0.500000 -2.142857
-0.100000 0.500000 -2.142857
0.100000 0.500000 -2.142857
0.300000 0.500000 -2.142857
0.500000 0.500000 -2.142857
-0.500000 0.500000 -1.971429
-0.300000 0.500000 -1.971429
-0.100000 0.500000 -1.971429
0.100000 0.500000 -1.971429
0.300000 0.500000 -1.971429
0.500000 0.500000 -1.971429
-0.500000 0.500000 -1.800000
-0.300000 0.500000 -1.800000
-0.100000 0.500000 -1.800000
0.100000 0.500000 -1.800000
0.300000 0.500000 -1.800000
0.500000 0.500000 -1.800000
-0.500000 0.500000 -1.628571
-0.300000 0.500000 -1.628571
-0.100000 0.500000 -1.628571
0.100000 0.500000 -1.628571
0.300000 0.500000 -1.628571
0.500000 0.500000 -1.628571
-0.500000 0.500000 -1.457143
-0.300000 0.500000 -1.457143
-0.100000 0.500000 -1.457143
0.100000 0.500000 -1.457143
0.300000 0.500000 -1.457143
0.500000 0.500000 -1.457143
-0.500000 0.500000 -1.285714
-0.300000 0.500000 -1.285714
-0.100000 0.500000 -1.285714
0.100000 0.500000 -1.285714
0.300000 0.500000 -1.285714
0.500000 0.500000 -1.285714
-0.500000 0.500000 -1.114286
-0.300000 0.500000 -1.114286
-0.100000 0.500000 -1.114286
0.100000 0.500000 -1.114286
0.300000 0.500000 -1.114286
0.500000 0.500000 -1.114286
-0.500000 0.500000 -0.942857
-0.300000 0.500000 -0.942857
-0.100000 0.500000 -0.942857
0.100000 0.500000 -0.942857
0.300000 0.500000 -0.942857
0.500000 0.500000 -0.942857
-0.500000 0.500000 -0.771429
-0.300000 0.500000 -0.771429
-0.100000 0.500000 -0.771429
0.100000 0.500000 -0.771429
0.300000 0.500000 -0.771429
0.500000 0.500000 -0.771429
-0.500000 0.500000 -0.600000
-0.300000 0.500000 -0.600000
-0.100000 0.500000 -0.600000
0.100000 0.500000 -0.600000
0.300000 0.500000 -0.600000
0.500000 0.500000 -0.600000
-0.500000 0.500000 -0.428571
-0.300000 0.500000 -0.428571
-0.100000 0.500000 -0.428571
0.100000 0.500000 -0.428571
0.300000 0.500000 -0.428571
0.500000 0.500000 -0.428571
-0.500000 0.500000 -0.257143
-0.300000 0.500000 -0.257143
-0.100000 0.500000 -0.257143
0.100000 0.500000 -0.257143
0.300000 0.500000 -0.257143
0.500000 0.500000 -0.257143
-0.500000 0.500000 -0.085714
-0.300000 0.500000 -0.085714
-0.100000 0.500000 -0.085714
0.100000 0.500000 -0.085714
0.300000 0.500000 -0.085714
0.500000 0.500000 -0.085714
-0.500000 0.500000 0.085714
-0.300000 0.500000 0.085714
-0.100000 0.500000 0.085714
0.100000 0.500000 0.085714
0.300000 0.500000 0.085714
0.500000 0.500000 0.085714
-0.500000 0.500000 0.257143
-0.300000 0.500000 0.257143
-0.100000 0.500000 0.257143
0.100000 0.500000 0.257143
0.300000 0.500000 0.257143
0.500000 0.500000 0.257143
-0.500000 0.500000 0.428571
-0.300000 0.500000 0.428571
-0.100000 0.500000 0.428571
0.100000 0.500000 0.428571
0.300000 0.500000 0.428571
0.500000 0.500000 0.428571
-0.500000 0.500000 0.600000
-0.300000 0.500000 0.600000
-0.100000 0.500000 0.600000
0.100000 0.500000 0.600000
0.300000 0.500000 0.600000
0.500000 0.500000 0.600000
-0.500000 0.500000 0.771429
-0.300000 0.500000 0.771429
-0.100000 0.500000 0.771429
0.100000 0.500000 0.771429
0.300000 0.500000 0.771429
0.500000 0.500000 0.771429
-0.500000 0.500000 0.942857
-0.300000 0.500000 0.942857
-0.100000 0.500000 0.942857
0.100000 0.500000 0.942857
0.300000 0.500000 0.942857
0.500000 0.500000 0.942857
-0.500000 0.500000 1.114286
-0.300000 0.500000 1.114286
-0.100000 0.500000 1.114286
0.100000 0.500000 1.114286
0.300000 0.500000 1.114286
0.500000 0.500000 1.114286
-0.500000 0.500000 1.285714
-0.300000 0.500000 1.285714
-0.100000 0.500000 1.285714
0.100000 0.500000 1.285714
0.300000 0.500000 1.285714
0.500000 0.500000 1.285714
-0.500000 0.500000 1.457143
-0.300000 0.500000 1.457143
-0.100000 0.500000 1.457143
0.100000 0.500000 1.457143
0.300000 0.500000 1.457143
0.500000 0.500000 1.457143
-0.500000 0.500000 1.628571
-0.300000 0.500000 1.628571
-0.100000 0.500000 1.628571
0.100000 0.500000 1.628571
0.300000 0.500000 1.628571
0.500000 0.500000 1.628571
-0.500000 0.500000 1.800000
-0.300000 0.500000 1.800000
-0.100000 0.500000 1.800000
0.100000 0.500000 1.800000
0.300000 0.500000 1.800000
0.500000 0.500000 1.800000
-0.500000 0.500000 1.971429
-0.300000 0.500000 1.971429
-0.100000 0.500000 1.971429
0.100000 0.500000 1.971429
0.300000 0.500000 1.971429
0.500000 0.500000 1.971429
-0.500000 0.500000 2.142857
-0.300000 0.500000 2.142857
-0.100000 0.500000 2.142857
0.100000 0.500000 2.142857
0.300000 0.500000 2.142857
0.500000 0.500000 2.142857
-0.500000 0.500000 2.314286
-0.300000 0.500000 2.314286
-0.100000 0.500000 2.314286
0.100000 0.500000 2.314286
0.300000 0.500000 2.314286
0.500000 0.500000 2.314286
-0.500000 0.500000 2.485714
-0.300000 0.500000 2.485714
-0.100000 0.500000 2.485714
0.100000 0.500000 2.485714
0.300000 0.500000 2.485714
0.500000 0.500000 2.485714
-0.500000 0.500000 2.657143
-0.300000 0.500000 2.657143
-0.100000 0.500000 2.657143
0.100000 0.500000 2.657143
0.300000 0.500000 2.657143
0.500000 0.500000 2.657143
-0.500000 0.500000 2.828571
-0.300000 0.500000 2.828571
-0.100000 0.500000 2.828571
0.100000 0.500000 2.828571
0.300000 0.500000 2.828571
0.500000 0.500000 2.828571
-0.500000 0.500000 3.000000
-0.300000 0.500000 3.000000
-0.100000 0.500000 3.000000
0.100000 0.500000 3.000000
0.300000 0.500000 3.000000
0.500000 0.500000 3.000000
-0.500000 -0.300000 -3.000000
-0.500000 -0.300000 -2.828571
-0.500000 -0.300000 -2.657143
-0.500000 -0.300000 -2.485714
-0.500000 -0.300000 -2.314286
-0.500000 -0.300000 -2.142857
-0.500000 -0.300000 -1.971429
-0.500000 -0.300000 -1.800000
-0.500000 -0.300000 -1.628571
-0.500000 -0.300000 -1.457143
-0.500000 -0.300000 -1.285714
-0.500000 -0.300000 -1.114286
-0.500000 -0.300000 -0.942857
-0.500000 -0.300000 -0.771429
-0.500000 -0.300000 -0.600000
-0.500000 -0.300000 -0.428571
-0.500000 -0.300000 -0.257143
-0.500000 -0.300000 -0.085714
-0.500000 -0.300000 0.085714
-0.500000 -0.300000 0.257143
-0.500000 -0.300000 0.428571
-0.500000 -0.300000 0.600000
-0.500000 -0.300000 0.771429
-0.500000 -0.300000 0.942857
-0.500000 -0.300000 1.114286
-0.500000 -0.300000 1.285714
-0.500000 -0.300000 1.457143
-0.500000 -0.300000 1.628571
-0.500000 -0.300000 1.800000
-0.500000 -0.300000 1.971429
-0.500000 -0.300000 2.142857
-0.500000 -0.300000 2.314286
-0.500000 -0.300000 2.485714
-0.500000 -0.300000 2.657143
-0.500000 -0.300000 2.828571
-0.500000 -0.300000 3.000000
-0.300000 -0.300000 3.000000
-0.100000 -0.300000 3.000000
0.100000 -0.300000 3.000000
0.300000 -0.300000 3.000000
0.500000 -0.300000 3.000000
0.500000 -0.300000 2.828571
0.500000 -0.300000 2.657143
0.500000 -0.300000 2.485714
0.500000 -0.300000 2.314286
0.500000 -0.300000 2.142857
0.500000 -0.300000 1.971429
0.500000 -0.300000 1.800000
0.500000 -0.300000 1.628571
0.500000 -0.300000 1.457143
0.500000 -0.300000 1.285714
0.500000 -0.300000 1.114286
0.500000 -0.300000 0.942857
0.500000 -0.300000 0.771429
0.500000 -0.300000 0.600000
0.500000 -0.300000 0.428571
0.500000 -0.300000 0.257143
0.500000 -0.300000 0.085714
0.500000 -0.300000 -0.085714
0.500000 -0.300000 -0.257143
0.500000 -0.300000 -0.428571
0.500000 -0.300000 -0.600000
0.500000 -0.300000 -0.771429
0.500000 -0.300000 -0.942857
0.500000 -0.300000 -1.114286
0.500000 -0.300000 -1.285714
0.500000 -0.300000 -1.457143
0.500000 -0.300000 -1.628571
0.500000 -0.300000 -1.800000
0.500000 -0.300000 -1.971429
0.500000 -0.300000 -2.142857
0.500000 -0.300000 -2.314286
0.500000 -0.300000 -2.485714
0.500000 -0.300000 -2.657143
0.500000 -0.300000 -2.828571
0.500000 -0.300000 -3.000000
0.300000 -0.300000 -3.000000
0.100000 -0.300000 -3.000000
-0.100000 -0.300000 -3.000000
-0.300000 -0.300000 -3.000000
-0.500000 -0.100000 -3.000000
-0.500000 -0.100000 -2.828571
-0.500000 -0.100000 -2.657143
-0.500000 -0.100000 -2.485714
-0.500000 -0.100000 -2.314286
-0.500000 -0.100000 -2.142857
-0.500000 -0.100000 -1.971429
-0.500000 -0.100000 -1.800000
-0.500000 -0.100000 -1.628571
-0.500000 -0.100000 -1.457143
-0.500000 -0.100000 -1.285714
-0.500000 -0.100000 -1.114286
-0.500000 -0.100000 -0.942857
-0.500000 -0.100000 -0.771429
-0.500000 -0.100000 -0.600000
-0.500000 -0.100000 -0.428571
-0.500000 -0.100000 -0.257143
-0.500000 -0.100000 -0.085714
-0.500000 -0.100000 0.085714
-0.500000 -0.100000 0.257143
-0.500000 -0.100000 0.428571
-0.500000 -0.100000 0.600000
-0.500000 -0.100000 0.771429
-0.500000 -0.100000 0.942857
-0.500000 -0.100000 1.114286
-0.500000 -0.100000 1.285714
-0.500000 -0.100000 1.457143
-0.500000 -0.100000 1.628571
-0.500000 -0.100000 1.800000
-0.500000 -0.100000 1.971429
-0.500000 -0.100000 2.142857
-0.500000 -0.100000 2.314286
-0.500000 -0.100000 2.485714
-0.500000 -0.100000 2.657143
-0.500000 -0.100000 2.828571
-0.500000 -0.100000 3.000000
-0.300000 -0.100000 3.000000
-0.100000 -0.100000 3.000000
0.100000 -0.100000 3.000000
0.300000 -0.100000 3.000000
0.500000 -0.100000 3.000000
0.500000 -0.100000 2.828571
0.500000 -0.100000 2.657143
0.500000 -0.100000 2.485714
0.500000 -0.100000 2.314286
0.500000 -0.100000 2.142857
0.500000 -0.100000 1.971429
0.500000 -0.100000 1.800000
0.500000 -0.100000 1.628571
0.500000 -0.100000 1.457143
0.500000 -0.100000 1.285714
0.500000 -0.100000 1.114286
0.500000 -0.100000 0.942857
0.500000 -0.100000 0.771429
0.500000 -0.100000 0.600000
0.500000 -0.100000 0.428571
0.500000 -0.100000 0.257143
0.500000 -0.100000 0.085714
0.500000 -0.100000 -0.085714
0.500000 -0.100000 -0.257143
0.500000 -0.100000 -0.428571
0.500000 -0.100000 -0.600000
0.500000 -0.100000 -0.771429
0.500000 -0.100000 -0.942857
0.500000 -0.100000 -1.114286
0.500000 -0.100000 -1.285714
0.500000 -0.100000 -1.457143
0.500000 -0.100000 -1.628571
0.500000 -0.100000 -1.800000
0.500000 -0.100000 -1.971429
0.500000 -0.100000 -2.142857
0.500000 -0.100000 -2.314286
0.500000 -0.100000 -2.485714
0.500000 -0.100000 -2.657143
0.500000 -0.100000 -2.828571
0.500000 -0.100000 -3.000000
0.300000 -0.100000 -3.000000
0.100000 -0.100000 -3.000000
-0.100000 -0.100000 -3.000000
-0.300000 -0.100000 -3.000000
-0.500000 0.100000 -3.000000
-0.500000 0.100000 -2.828571
-0.500000 0.100000 -2.657143
-0.500000 0.100000 -2.485714
-0.500000 0.100000 -2.314286
-0.500000 0.100000 -2.142857
-0.500000 0.100000 -1.971429
-0.500000 0.100000 -1.800000
-0.500000 0.100000 -1.628571
-0.500000 0.100000 -1.457143
-0.500000 0.100000 -1.285714
-0.500000 0.100000 -1.114286
-0.500000 0.100000 -0.942857
-0.500000 0.100000 -0.771429
-0.500000 0.100000 -0.600000
-0.500000 0.100000 -0.428571
-0.500000 0.100000 -0.257143
-0.500000 0.100000 -0.085714
-0.500000 0.100000 0.085714
-0.500000 0.100000 0.257143
-0.500000 0.100000 0.428571
-0.500000 0.100000 0.600000
-0.500000 0.100000 0.771429
-0.500000 0.100000 0.942857
-0.500000 0.100000 1.114286
-0.500000 0.100000 1.285714
-0.500000 0.100000 1.457143
-0.500000 0.100000 1.628571
-0.500000 0.100000 1.800000
-0.500000 0.100000 1.971429
-0.500000 0.100000 2.142857
-0.500000 0.100000 2.314286
-0.500000 0.100000 2.485714
-0.500000 0.100000 2.657143
-0.500000 0.100000 2.828571
-0.500000 0.100000 3.000000
-0.300000 0.100000 3.000000
-0.100000 0.100000 3.000000
0.100000 0.100000 3.000000
0.300000 0.100000 3.000000
0.500000 0.100000 3.000000
0.500000 0.100000 2.828571
0.500000 0.100000 2.657143
0.500000 0.100000 2.485714
0.500000 0.100000 2.314286
0.500000 0.100000 2.142857
0.500000 0.100000 1.971429
0.500000 0.100000 1.800000
0.500000 0.100000 1.628571
0.500000 0.100000 1.457143
0.500000 0.100000 1.285714
0.500000 0.100000 1.114286
0.500000 0.100000 0.942857
0.500000 0.100000 0.771429
0.500000 0.100000 0.600000
0.500000 0.100000 0.428571
0.500000 0.100000 0.257143
0.500000 0.100000 0.085714
0.500000 0.100000 -0.085714
0.500000 0.100000 -0.257143
0.500000 0.100000 -0.428571
0.500000 0.100000 -0.600000
0.500000 0.100000 -0.771429
0.500000 0.100000 -0.942857
0.500000 0.100000 -1.114286
0.500000 0.100000 -1.285714
0.500000 0.100000 -1.457143
0.500000 0.100000 -1.628571
0.500000 0.100000 -1.800000
0.500000 0.100000 -1.971429
0.500000 0.100000 -2.142857
0.500000 0.100000 -2.314286
0.500000 0.100000 -2.485714
0.500000 0.100000 -2.657143
0.500000 0.100000 -2.828571
0.500000 0.100000 -3.000000
0.300000 0.100000 -3.000000
0.100000 0.100000 -3.000000
-0.100000 0.100000 -3.000000
-0.300000 0.100000 -3.000000
-0.500000 0.300000 -3.000000
-0.500000 0.300000 -2.828571
-0.500000 0.300000 -2.657143
-0.500000 0.300000 -2.485714
-0.500000 0.300000 -2.314286
-0.500000 0.300000 -2.142857
-0.500000 0.300000 -1.971429
-0.500000 0.300000 -1.800000
-0.500000 0.300000 -1.628571
-0.500000 0.300000 -1.457143
-0.500000 0.300000 -1.285714
-0.500000 0.300000 -1.114286
-0.500000 0.300000 -0.942857
-0.500000 0.300000 -0.771429
-0.500000 0.300000 -0.600000
-0.500000 0.300000 -0.428571
-0.500000 0.300000 -0.257143
-0.500000 0.300000 -0.085714
-0.500000 0.300000 0.085714
-0.500000 0.300000 0.257143
-0.500000 0.300000 0.428571
-0.500000 0.300000 0.600000
-0.500000 0.300000 0.771429
-0.500000 0.300000 0.942857
-0.500000 0.300000 1.114286
-0.500000 0.300000 1.285714
-0.500000 0.300000 1.457143
-0.500000 0.300000 1.628571
-0.500000 0.300000 1.800000
-0.500000 0.300000 1.971429
-0.500000 0.300000 2.142857
-0.500000 0.300000 2.314286
-0.500000 0.300000 2.485714
-0.500000 0.300000 2.657143
-0.500000 0.300000 2.828571
-0.500000 0.300000 3.000000
-0.300000 0.300000 3.000000
-0.100000 0.300000 3.000000
0.100000 0.300000 3.000000
0.300000 0.300000 3.000000
0.500000 0.300000 3.000000
0.500000 0.300000 2.828571
0.500000 0.300000 2.657143
0.500000 0.300000 2.485714
0.500000 0.300000 2.314286
0.500000 0.300000 2.142857
0.500000 0.300000 1.971429
0.500000 0.300000 1.800000
0.500000 0.300000 1.628571
0.500000 0.300000 1.457143
0.500000 0.300000 1.285714
0.500000 0.300000 1.114286
0.500000 0.300000 0.942857
0.500000 0.300000 0.771429
0.500000 0.300000 0.600000
0.500000 0.300000 0.428571
0.500000 0.300000 0.257143
0.500000 0.300000 0.085714
0.500000 0.300000 -0.085714
0.500000 0.300000 -0.257143
0.500000 0.300000 -0.428571
0.500000 0.300000 -0.600000
0.500000 0.300000 -0.771429
0.500000 0.300000 -0.942857
0.500000 0.300000 -1.114286
0.500000 0.300000 -1.285714
0.500000 0.300000 -1.457143
0.500000 0.300000 -1.628571
0.500000 0.300000 -1.800000
0.500000 0.300000 -1.971429
0.500000 0.300000 -2.142857
0.500000 0.300000 -2.314286
0.500000 0.300000 -2.485714
0.500000 0.300000 -2.657143
0.500000 0.300000 -2.828571
0.500000 0.300000 -3.000000
0.300000 0.300000 -3.000000
0.100000 0.300000 -3.000000
-0.100000 0.300000 -3.000000
-0.300000 0.300000 -3.000000
3 0 1 6
3 6 1 7
3 1 2 7
3 7 2 8
3 2 3 8
3 8 3 9
3 3 4 9
3 9 4 10
3 4 5 10
3 10 5 11
3 6 7 12
3 12 7 13
3 7 8 13
3 13 8 14
3 8 9 14
3 14 9 15
3 9 10 15
3 15 10 16
3 10 11 16
3 16 11 17
3 12 13 18
3 18 13 19
3 13 14 19
3 19 14 20
3 14 15 20
3 20 15 21
3 15 16 21
3 21 16 22
3 16 17 22
3 22 17 23
3 18 19 24
3 24 19 25
3 19 20 25
3 25 20 26
3 20 21 26
3 26 21 27
3 21 22 27
3 27 22 28
3 22 23 28
3 28 23 29
3 24 25 30
3 30 25 31
3 25 26 31
3 31 26 32
3 26 27 32
3 32 27 33
3 27 28 33
3 33 28 34
3 28 29 34
3 34 29 35
3 30 31 36
3 36 31 37
3 31 32 37
3 37 32 38
3 32 33 38
3 38 33 39
3 33 34 39
3 39 34 40
3 34 35 40
3 40 35 41
3 36 37 42
3 42 37 43
3 37 38 43
3 43 38 44
3 38 39 44
3 44 39 45
3 39 40 45
3 45 40 46
3 40 41 46
3 46 41 47
3 42 43 48
3 48 43 49
3 43 44 49
3 49 44 50
3 44 45 50
3 50 45 51
3 45 46 51
3 51 46 52
3 46 47 52
3 52 47 53
3 48 49 54
3 54 49 55
3 49 50 55
3 55 50 56
3 50 51 56
3 56 51 57
3 51 52 57
3 57 52 58
3 52 53 58
3 58 53 59
3 54 55 60
3 60 55 61
3 55 56 61
3 61 56 62
3 56 57 62
3 62 57 63
3 57 58 63
3 63 58 64
3 58 59 64
3 64 59 65
3 60 61 66
3 66 61 67
3 61 62 67
3 67 62 68
3 62 63 68
3 68 63 69
3 63 64 69
3 69 64 70
3 64 65 70
3 70 65 71
3 66 67 72
3 72 67 73
3 67 68 73
3 73 68 74
3 68 69 74
3 74 69 75
3 69 70 75
3 75 70 76
3 70 71 76
3 76 71 77
3 72 73 78
3 78 73 79
3 73 74 79
3 79 74 80
3 74 75 80
3 80 75 81
3 75 76 81
3 81 76 82
3 76 77 82
3 82 77 83
3 78 79 84
3 84 79 85
3 79 80 85
3 85 80 86
3 80 81 86
3 86 81 87
3 81 82 87
3 87 82 88
3 82 83 88
3 88 83 89
3 84 85 90
3 90 85 91
3 85 86 91
3 91 86 92
3 86 87 92
3 92 87 93
3 87 88 93
3 93 88 94
3 88 89 94
3 94 89 95
3 90 91 96
3 96 91 97
3 91 92 97
3 97 92 98
3 92 93 98
3 98 93 99
3 93 94 99
3 99 94 100
3 94 95 100
3 100 95 101
3 96 97 102
3 102 97 103
3 97 98 103
3 103 98 104
3 98 99 104
3 104 99 105
3 99 100 105
3 105 100 106
3 100 101 106
3 106 101 107
3 102 103 108
3 108 103 109
3 103 104 109
3 109 104 110
3 104 105 110
3 110 105 111
3 105 106 111
3 111 106 112
3 106 107 112
3 112 107 113
3 108 109 114
3 114 109 115
3 109 110 115
3 115 110 116
3 110 111 116
3 116 111 117
3 111 112 117
3 117 112 118
3 112 113 118
3 118 113 119
3 114 115 120
3 120 115 121
3 115 116 121
3 121 116 122
3 116 117 122
3 122 117 123
3 117 118 123
3 123 118 124
3 118 119 124
3 124 119 125
3 120 121 126
3 126 121 127
3 121 122 127
3 127 122 128
3 122 123 128
3 128 123 129
3 123 124 129
3 129 124 130
3 124 125 130
3 130 125 131
3 126 127 132
3 132 127 133
3 127 128 133
3 133 128 134
3 128 129 134
3 134 129 135
3 129 130 135
3 135 130 136
3 130 131 136
3 136 131 137
3 132 133 138
3 138 133 139
3 133 134 139
3 139 134 140
3 134 135 140
3 140 135 141
3 135 136 141
3 141 136 142
3 136 137 142
3 142 137 143
3 138 139 144
3 144 139 145
3 139 140 145
3 145 140 146
3 140 141 146
3 146 141 147
3 141 142 147
3 147 142 148
3 142 143 148
3 148 143 149
3 144 145 150
3 150 145 151
3 145 146 151
3 151 146 152
3 146 147 152
3 152 147 153
3 147 148 153
3 153 148 154
3 148 149 154
3 154 149 155
3 150 151 156
3 156 151 157
3 151 152 157
3 157 152 158
3 152 153 158
3 158 153 159
3 153 154 159
3 159 154 160
3 154 155 160
3 160 155 161
3 156 157 162
3 162 157 163
3 157 158 163
3 163 158 164
3 158 159 164
3 164 159 165
3 159 160 165
3 165 160 166
3 160 161 166
3 166 161 167
3 162 163 168
3 168 163 169
3 163 164 169
3 169 164 170
3 164 165 170
3 170 165 171
3 165 166 171
3 171 166 172
3 166 167 172
3 172 167 173
3 168 169 174
3 174 169 175
3 169 170 175
3 175 170 176
3 170 171 176
3 176 171 177
3 171 172 177
3 177 172 178
3 172 173 178
3 178 173 179
3 174 175 180
3 180 175 181
3 175 176 181
3 181 176 182
3 176 177 182
3 182 177 183
3 177 178 183
3 183 178 184
3 178 179 184
3 184 179 185
3 180 181 186
3 186 181 187
3 181 182 187
3 187 182 188
3 182 183 188
3 188 183 189
3 183 184 189
3 189 184 190
3 184 185 190
3 190 185 191
3 186 187 192
3 192 187 193
3 187 188 193
3 193 188 194
3 188 189 194
3 194 189 195
3 189 190 195
3 195 190 196
3 190 191 196
3 196 191 197
3 192 193 198
3 198 193 199
3 193 194 199
3 199 194 200
3 194 195 200
3 200 195 201
3 195 196 201
3 201 196 202
3 196 197 202
3 202 197 203
3 198 199 204
3 204 199 205
3 199 200 205
3 205 200 206
3 200 201 206
3 206 201 207
3 201 202 207
3 207 202 208
3 202 203 208
3 208 203 209
3 204 205 210
3 210 205 211
3 205 206 211
3 211 206 212
3 206 207 212
3 212 207 213
3 207 208 213
3 213 208 214
3 208 209 214
3 214 209 215
3 222 217 216
3 223 217 222
3 223 218 217
3 224 218 223
3 224 219 218
3 225 219 224
3 225 220 219
3 226 220 225
3 226 221 220
3 227 221 226
3 228 223 222
3 229 223 228
3 229 224 223
3 230 224 229
3 230 225 224
3 231 225 230
3 231 226 225
3 232 226 231
3 232 227 226
3 233 227 232
3 234 229 228
3 235 229 234
3 235 230 229
3 236 230 235
3 236 231 230
3 237 231 236
3 237 232 231
3 238 232 237
3 238 233 232
3 239 233 238
3 240 235 234
3 241 235 240
3 241 236 235
3 242 236 241
3 242 237 236
3 243 237 242
3 243 238 237
3 244 238 243
3 244 239 238
3 245 239 244
3 246 241 240
3 247 241 246
3 247 242 241
3 248 242 247
3 248 243 242
3 249 243 248
3 249 244 243
3 250 244 249
3 250 245 244
3 251 245 250
3 252 247 246
3 253 247 252
3 253 248 247
3 254 248 253
3 254 249 248
3 255 249 254
3 255 250 249
3 256 250 255
3 256 251 250
3 257 251 256
3 258 253 252
3 259 253 258
3 259 254 253
3 260 254 259
3 260 255 254
3 261 255 260
3 261 256 255
3 262 256 261
3 262 257 256
3 263 257 262
3 264 259 258
3 265 259 264
3 265 260 259
3 266 260 265
3 266 261 260
3 267 261 266
3 267 262 261
3 268 262 267
3 268 263 262
3 269 263 268
3 270 265 264
3 271 265 270
3 271 266 265
3 272 266 271
3 272 267 266
3 273 267 272
3 273 268 267
3 274 268 273
3 274 269 268
3 275 269 274
3 276 271 270
3 277 271 276
3 277 272 271
3 278 272 277
3 278 273 272
3 279 273 278
3 279 274 273
3 280 274 279
3 280 275 274
3 281 275 280
3 282 277 276
3 283 277 282
3 283 278 277
3 284 278 283
3 284 279 278
3 285 279 284
3 285 280 279
3 286 280 285
3 286 281 280
3 287 281 286
3 288 283 282
3 289 283 288
3 289 284 283
3 290 284 289
3 290 285 284
3 291 285 290
3 291 286 285
3 292 286 291
3 292 287 286
3 293 287 292
3 294 289 288
3 295 289 294
3 295 290 289
3 296 290 295
3 296 291 290
3 297 291 296
3 297 292 291
3 298 292 297
3 298 293 292
3 299 293 298
3 300 295 294
3 301 295 300
3 301 296 295
3 302 296 301
3 302 297 296
3 303 297 302
3 303 298 297
3 304 298 303
3 304 299 298
3 305 299 304
3 306 301 300
3 307 301 306
3 307 302 301
3 308 302 307
3 308 303 302
3 309 303 308
3 309 304 303
3 310 304 309
3 310 305 304
3 311 305 310
3 312 307 306
3 313 307 312
3 313 308 307
3 314 308 313
3 314 309 308
3 315 309 314
3 315 310 309
3 316 310 315
3 316 311 310
3 317 311 316
3 318 313 312
3 319 313 318
3 319 314 313
3 320 314 319
3 320 315 314
3 321 315 320
3 321 316 315
3 322 316 321
3 322 317 316
3 323 317 322
3 324 319 318
3 325 319 324
3 325 320 319
3 326 320 325
3 326 321 320
3 327 321 326
3 327 322 321
3 328 322 327
3 328 323 322
3 329 323 328
3 330 325 324
3 331 325 330
3 331 326 325
3 332 326 331
3 332 327 326
3 333 327 332
3 333 328 327
3 334 328 333
3 334 329 328
3 335 329 334
3 336 331 330
3 337 331 336
3 337 332 331
3 338 332 337
3 338 333 332
3 339 333 338
3 339 334 333
3 340 334 339
3 340 335 334
3 341 335 340
3 342 337 336
3 343 337 342
3 343 338 337
3 344 338 343
3 344 339 338
3 345 339 344
3 345 340 339
3 346 340 345
3 346 341 340
3 347 341 346
3 348 343 342
3 349 343 348
3 349 344 343
3 350 344 349
3 350 345 344
3 351 345 350
3 351 346 345
3 352 346 351
3 352 347 346
3 353 347 352
3 354 349 348
3 355 349 354
3 355 350 349
3 356 350 355
3 356 351 350
3 357 351 356
3 357 352 351
3 358 352 357
3 358 353 352
3 359 353 358
3 360 355 354
3 361 355 360
3 361 356 355
3 362 356 361
3 362 357 356
3 363 357 362
3 363 358 357
3 364 358 363
3 364 359 358
3 365 359 364
3 366 361 360
3 367 361 366
3 367 362 361
3 368 362 367
3 368 363 362
3 369 363 368
3 369 364 363
3 370 364 369
3 370 365 364
3 371 365 370
3 372 367 366
3 373 367 372
3 373 368 367
3 374 368 373
3 374 369 368
3 375 369 374
3 375 370 369
3 376 370 375
3 376 371 370
3 377 371 376
3 378 373 372
3 379 373 378
3 379 374 373
3 380 374 379
3 380 375 374
3 381 375 380
3 381 376 375
3 382 376 381
3 382 377 376
3 383 377 382
3 384 379 378
3 385 379 384
3 385 380 379
3 386 380 385
3 386 381 380
3 387 381 386
3 387 382 381
3 388 382 387
3 388 383 382
3 389 383 388
3 390 385 384
3 391 385 390
3 391 386 385
3 392 386 391
3 392 387 386
3 393 387 392
3 393 388 387
3 394 388 393
3 394 389 388
3 395 389 394
3 396 391 390
3 397 391 396
3 397 392 391
3 398 392 397
3 398 393 392
3 399 393 398
3 399 394 393
3 400 394 399
3 400 395 394
3 401 395 400
3 402 397 396
3 403 397 402
3 403 398 397
3 404 398 403
3 404 399 398
3 405 399 404
3 405 400 399
3 406 400 405
3 406 401 400
3 407 401 406
3 408 403 402
3 409 403 408
3 409 404 403
3 410 404 409
3 410 405 404
3 411 405 410
3 411 406 405
3 412 406 411
3 412 407 406
3 413 407 412
3 414 409 408
3 415 409 414
3 415 410 409
3 416 410 415
3 416 411 410
3 417 411 416
3 417 412 411
3 418 412 417
3 418 413 412
3 419 413 418
3 420 415 414
3 421 415 420
3 421 416 415
3 422 416 421
3 422 417 416
3 423 417 422
3 423 418 417
3 424 418 423
3 424 419 418
3 425 419 424
3 426 421 420
3 427 421 426
3 427 422 421
3 428 422 427
3 428 423 422
3 429 423 428
3 429 424 423
3 430 424 429
3 430 425 424
3 431 425 430
3 0 6 432
3 432 6 433
3 6 12 433
3 433 12 434
3 12 18 434
3 434 18 435
3 18 24 435
3 435 24 436
3 24 30 436
3 436 30 437
3 30 36 437
3 437 36 438
3 36 42 438
3 438 42 439
3 42 48 439
3 439 48 440
3 48 54 440
3 440 54 441
3 54 60 441
3 441 60 442
3 60 66 442
3 442 66 443
3 66 72 443
3 443 72 444
3 72 78 444
3 444 78 445
3 78 84 445
3 445 84 446
3 84 90 446
3 446 90 447
3 90 96 447
3 447 96 448
3 96 102 448
3 448 102 449
3 102 108 449
3 449 108 450
3 108 114 450
3 450 114 451
3 114 120 451
3 451 120 452
3 120 126 452
3 452 126 453
3 126 132 453
3 453 132 454
3 132 138 454
3 454 138 455
3 138 144 455
3 455 144 456
3 144 150 456
3 456 150 457
3 150 156 457
3 457 156 458
3 156 162 458
3 458 162 459
3 162 168 459
3 459 168 460
3 168 174 460
3 460 174 461
3 174 180 461
3 461 180 462
3 180 186 462
3 462 186 463
3 186 192 463
3 463 192 464
3 192 198 464
3 464 198 465
3 198 204 465
3 465 204 466
3 204 210 466
3 466 210 467
3 210 211 467
3 467 211 468
3 211 212 468
3 468 212 469
3 212 213 469
3 469 213 470
3 213 214 470
3 470 214 471
3 214 215 471
3 471 215 472
3 215 209 472
3 472 209 473
3 209 203 473
3 473 203 474
3 203 197 474
3 474 197 475
3 197 191 475
3 475 191 476
3 191 185 476
3 476 185 477
3 185 179 477
3 477 179 478
3 179 173 478
3 478 173 479
3 173 167 479
3 479 167 480
3 167 161 480
3 480 161 481
3 161 155 481
3 481 155 482
3 155 149 482
3 482 149 483
3 149 143 483
3 483 143 484
3 143 137 484
3 484 137 485
3 137 131 485
3 485 131 486
3 131 125 486
3 486 125 487
3 125 119 487
3 487 119 488
3 119 113 488
3 488 113 489
3 113 107 489
3 489 107 490
3 107 101 490
3 490 101 491
3 101 95 491
3 491 95 492
3 95 89 492
3 492 89 493
3 89 83 493
3 493 83 494
3 83 77 494
3 494 77 495
3 77 71 495
3 495 71 496
3 71 65 496
3 496 65 497
3 65 59 497
3 497 59 498
3 59 53 498
3 498 53 499
3 53 47 499
3 499 47 500
3 47 41 500
3 500 41 501
3 41 35 501
3 501 35 502
3 35 29 502
3 502 29 503
3 29 23 503
3 503 23 504
3 23 17 504
3 504 17 505
3 17 11 505
3 505 11 506
3 11 5 506
3 506 5 507
3 5 4 507
3 507 4 508
3 4 3 508
3 508 3 509
3 3 2 509
3 509 2 510
3 2 1 510
3 510 1 511
3 1 0 511
3 511 0 432
3 432 433 512
3 512 433 513
3 433 434 513
3 513 434 514
3 434 435 514
3 514 435 515
3 435 436 515
3 515 436 516
3 436 437 516
3 516 437 517
3 437 438 517
3 517 438 518
3 438 439 518
3 518 439 519
3 439 440 519
3 519 440 520
3 440 441 520
3 520 441 521
3 441 442 521
3 521 442 522
3 442 443 522
3 522 443 523
3 443 444 523
3 523 444 524
3 444 445 524
3 524 445 525
3 445 446 525
3 525 446 526
3 446 447 526
3 526 447 527
3 447 448 527
3 527 448 528
3 448 449 528
3 528 449 529
3 449 450 529
3 529 450 530
3 450 451 530
3 530 451 531
3 451 452 531
3 531 452 532
3 452 453 532
3 532 453 533
3 453 454 533
3 533 454 534
3 454 455 534
3 534 455 535
3 455 456 535
3 535 456 536
3 456 457 536
3 536 457 537
3 457 458 537
3 537 458 538
3 458 459 538
3 538 459 539
3 459 460 539
3 539 460 540
3 460 461 540
3 540 461 541
3 461 462 541
3 541 462 542
3 462 463 542
3 542 463 543
3 463 464 543
3 543 464 544
3 464 465 544
3 544 465 545
3 465 466 545
3 545 466 546
3 466 467 546
3 546 467 547
3 467 468 547
3 547 468 548
3 468 469 548
3 548 469 549
3 469 470 549
3 549 470 550
3 470 471 550
3 550 471 551
3 471 472 551
3 551 472 552
3 472 473 552
3 552 473 553
3 473 474 553
3 553 474 554
3 474 475 554
3 554 475 555
3 475 476 555
3 555 476 556
3 476 477 556
3 556 477 557
3 477 478 557
3 557 478 558
3 478 479 558
3 558 479 559
3 479 480 559
3 559 480 560
3 480 481 560
3 560 481 561
3 481 482 561
3 561 482 562
3 482 483 562
3 562 483 563
3 483 484 563
3 563 484 564
3 484 485 564
3 564 485 565
3 485 486 565
3 565 486 566
3 486 487 566
3 566 487 567
3 487 488 567
3 567 488 568
3 488 489 568
3 568 489 569
3 489 490 569
3 569 490 570
3 490 491 570
3 570 491 571
3 491 492 571
3 571 492 572
3 492 493 572
3 572 493 573
3 493 494 573
3 573 494 574
3 494 495 574
3 574 495 575
3 495 496 575
3 575 496 576
3 496 497 576
3 576 497 577
3 497 498 577
3 577 498 578
3 498 499 578
3 578 499 579
3 499 500 579
3 579 500 580
3 500 501 580
3 580 501 581
3 501 502 581
3 581 502 582
3 502 503 582
3 582 503 583
3 503 504 583
3 583 504 584
3 504 505 584
3 584 505 585
3 505 506 585
3 585 506 586
3 506 507 586
3 586 507 587
3 507 508 587
3 587 508 588
3 508 509 588
3 588 509 589
3 509 510 589
3 589 510 590
3 510 511 590
3 590 511 591
3 511 432 591
3 591 432 512
3 512 513 592
3 592 513 593
3 513 514 593
3 593 514 594
3 514 515 594
3 594 515 595
3 515 516 595
3 595 516 596
3 516 517 596
3 596 517 597
3 517 518 597
3 597 518 598
3 518 519 598
3 598 519 599
3 519 520 599
3 599 520 600
3 520 521 600
3 600 521 601
3 521 522 601
3 601 522 602
3 522 523 602
3 602 523 603
3 523 524 603
3 603 524 604
3 524 525 604
3 604 525 605
3 525 526 605
3 605 526 606
3 526 527 606
3 606 527 607
3 527 528 607
3 607 528 608
3 528 529 608
3 608 529 609
3 529 530 609
3 609 530 610
3 530 531 610
3 610 531 611
3 531 532 611
3 611 532 612
3 532 533 612
3 612 533 613
3 533 534 613
3 613 534 614
3 534 535 614
3 614 535 615
3 535 536 615
3 615 536 616
3 536 537 616
3 616 537 617
3 537 538 617
3 617 538 618
3 538 539 618
3 618 539 619
3 539 540 619
3 619 540 620
3 540 541 620
3 620 541 621
3 541 542 621
3 621 542 622
3 542 543 622
3 622 543 623
3 543 544 623
3 623 544 624
3 544 545 624
3 624 545 625
3 545 546 625
3 625 546 626
3 546 547 626
3 626 547 627
3 547 548 627
3 627 548 628
3 548 549 628
3 628 549 629
3 549 550 629
3 629 550 630
3 550 551 630
3 630 551 631
3 551 552 631
3 631 552 632
3 552 553 632
3 632 553 633
3 553 554 633
3 633 554 634
3 554 555 634
3 634 555 635
3 555 556 635
3 635 556 636
3 556 557 636
3 636 557 637
3 557 558 637
3 637 558 638
3 558 559 638
3 638 559 639
3 559 560 639
3 639 560 640
3 560 561 640
3 640 561 641
3 561 562 641
3 641 562 642
3 562 563 642
3 642 563 643
3 563 564 643
3 643 564 644
3 564 565 644
3 644 565 645
3 565 566 645
3 645 566 646
3 566 567 646
3 646 567 647
3 567 568 647
3 647 568 648
3 568 569 648
3 648 569 649
3 569 570 649
3 649 570 650
3 570 571 650
3 650 571 651
3 571 572 651
3 651 572 652
3 572 573 652
3 652 573 653
3 573 574 653
3 653 574 654
3 574 575 654
3 654 575 655
3 575 576 655
3 655 576 656
3 576 577 656
3 656 577 657
3 577 578 657
3 657 578 658
3 578 579 658
3 658 579 659
3 579 580 659
3 659 580 660
3 580 581 660
3 660 581 661
3 581 582 661
3 661 582 662
3 582 583 662
3 662 583 663
3 583 584 663
3 663 584 664
3 584 585 664
3 664 585 665
3 585 586 665
3 665 586 666
3 586 587 666
3 666 587 667
3 587 588 667
3 667 588 668
3 588 589 668
3 668 589 669
3 589 590 669
3 669 590 670
3 590 591 670
3 670 591 671
3 591 512 671
3 671 512 592
3 592 593 672
3 672 593 673
3 593 594 673
3 673 594 674
3 594 595 674
3 674 595 675
3 595 596 675
3 675 596 676
3 596 597 676
3 676 597 677
3 597 598 677
3 677 598 678
3 598 599 678
3 678 599 679
3 599 600 679
3 679 600 680
3 600 601 680
3 680 601 681
3 601 602 681
3 681 602 682
3 602 603 682
3 682 603 683
3 603 604 683
3 683 604 684
3 604 605 684
3 684 605 685
3 605 606 685
3 685 606 686
3 606 607 686
3 686 607 687
3 607 608 687
3 687 608 688
3 608 609 688
3 688 609 689
3 609 610 689
3 689 610 690
3 610 611 690
3 690 611 691
3 611 612 691
3 691 612 692
3 612 613 692
3 692 613 693
3 613 614 693
3 693 614 694
3 614 615 694
3 694 615 695
3 615 616 695
3 695 616 696
3 616 617 696
3 696 617 697
3 617 618 697
3 697 618 698
3 618 619 698
3 698 619 699
3 619 620 699
3 699 620 700
3 620 621 700
3 700 621 701
3 621 622 701
3 701 622 702
3 622 623 702
3 702 623 703
3 623 624 703
3 703 624 704
3 624 625 704
3 704 625 705
3 625 626 705
3 705 626 706
3 626 627 706
3 706 627 707
3 627 628 707
3 707 628 708
3 628 629 708
3 708 629 709
3 629 630 709
3 709 630 710
3 630 631 710
3 710 631 711
3 631 632 711
3 711 632 712
3 632 633 712
3 712 633 713
3 633 634 713
3 713 634 714
3 634 635 714
3 714 635 715
3 635 636 715
3 715 636 716
3 636 637 716
3 716 637 717
3 637 638 717
3 717 638 718
3 638 639 718
3 718 639 719
3 639 640 719
3 719 640 720
3 640 641 720
3 720 641 721
3 641 642 721
3 721 642 722
3 642 643 722
3 722 643 723
3 643 644 723
3 723 644 724
3 644 645 724
3 724 645 725
3 645 646 725
3 725 646 726
3 646 647 726
3 726 647 727
3 647 648 727
3 727 648 728
3 648 649 728
3 728 649 729
3 649 650 729
3 729 650 730
3 650 651 730
3 730 651 731
3 651 652 731
3 731 652 732
3 652 653 732
3 732 653 733
3 653 654 733
3 733 654 734
3 654 655 734
3 734 655 735
3 655 656 735
3 735 656 736
3 656 657 736
3 736 657 737
3 657 658 737
3 737 658 738
3 658 659 738
3 738 659 739
3 659 660 739
3 739 660 740
3 660 661 740
3 740 661 741
3 661 662 741
3 741 662 742
3 662 663 742
3 742 663 743
3 663 664 743
3 743 664 744
3 664 665 744
3 744 665 745
3 665 666 745
3 745 666 746
3 666 667 746
3 746 667 747
3 667 668 747
3 747 668 748
3 668 669 748
3 748 669 749
3 669 670 749
3 749 670 750
3 670 671 750
3 750 671 751
3 671 592 751
3 751 592 672
3 672 673 216
3 216 673 222
3 673 674 222
3 222 674 228
3 674 675 228
3 228 675 234
3 675 676 234
3 234 676 240
3 676 677 240
3 240 677 246
3 677 678 246
3 246 678 252
3 678 679 252
3 252 679 258
3 679 680 258
3 258 680 264
3 680 681 264
3 264 681 270
3 681 682 270
3 270 682 276
3 682 683 276
3 276 683 282
3 683 684 282
3 282 684 288
3 684 685 288
3 288 685 294
3 685 686 294
3 294 686 300
3 686 687 300
3 300 687 306
3 687 688 306
3 306 688 312
3 688 689 312
3 312 689 318
3 689 690 318
3 318 690 324
3 690 691 324
3 324 691 330
3 691 692 330
3 330 692 336
3 692 693 336
3 336 693 342
3 693 694 342
3 342 694 348
3 694 695 348
3 348 695 354
3 695 696 354
3 354 696 360
3 696 697 360
3 360 697 366
3 697 698 366
3 366 698 372
3 698 699 372
3 372 699 378
3 699 700 378
3 378 700 384
3 700 701 384
3 384 701 390
3 701 702 390
3 390 702 396
3 702 703 396
3 396 703 402
3 703 704 402
3 402 704 408
3 704 705 408
3 408 705 414
3 705 706 414
3 414 706 420
3 706 707 420
3 420 707 426
3 707 708 426
3 426 708 427
3 708 709 427
3 427 709 428
3 709 710 428
3 428 710 429
3 710 711 429
3 429 711 430
3 711 712 430
3 430 712 431
3 712 713 431
3 431 713 425
3 713 714 425
3 425 714 419
3 714 715 419
3 419 715 413
3 715 716 413
3 413 716 407
3 716 717 407
3 407 717 401
3 717 718 401
3 401 718 395
3 718 719 395
3 395 719 389
3 719 720 389
3 389 720 383
3 720 721 383
3 383 721 377
3 721 722 377
3 377 722 371
3 722 723 371
3 371 723 365
3 723 724 365
3 365 724 359
3 724 725 359
3 359 725 353
3 725 726 353
3 353 726 347
3 726 727 347
3 347 727 341
3 727 728 341
3 341 728 335
3 728 729 335
3 335 729 329
3 729 730 329
3 329 730 323
3 730 731 323
3 323 731 317
3 731 732 317
3 317 732 311
3 732 733 311
3 311 733 305
3 733 734 305
3 305 734 299
3 734 735 299
3 299 735 293
3 735 736 293
3 293 736 287
3 736 737 287
3 287 737 281
3 737 738 281
3 281 738 275
3 738 739 275
3 275 739 269
3 739 740 269
3 269 740 263
3 740 741 263
3 263 741 257
3 741 742 257
3 257 742 251
3 742 743 251
3 251 743 245
3 743 744 245
3 245 744 239
3 744 745 239
3 239 745 233
3 745 746 233
3 233 746 227
3 746 747 227
3 227 747 221
3 747 748 221
3 221 748 220
3 748 749 220
3 220 749 219
3 749 750 219
3 219 750 218
3 750 751 218
3 218 751 217
3 751 672 217
3 217 672 216
